<svg width="80" height="200" viewBox="0 0 80 200" fill="none" xmlns="http://www.w3.org/2000/svg">
<mask id="path-1-inside-1" fill="white">
<path fill-rule="evenodd" clip-rule="evenodd" d="M60 0H40H20L0 20V40V60L20 80H0V100V120V140V160V180V200L10 190L20 180V160V140V120V100H40H60V120V140V160V180L80 200V180V160V140V120V100V80V60V40V20L60 0ZM40 20H60V40V60V80V100L40 80H20V60V40V20H40Z"/>
</mask>
<path fill-rule="evenodd" clip-rule="evenodd" d="M60 0H40H20L0 20V40V60L20 80H0V100V120V140V160V180V200L10 190L20 180V160V140V120V100H40H60V120V140V160V180L80 200V180V160V140V120V100V80V60V40V20L60 0ZM40 20H60V40V60V80V100L40 80H20V60V40V20H40Z" fill="black"/>
<path d="M60 0L60.1768 -0.176777L60.1036 -0.25H60V0ZM20 0V-0.25H19.8964L19.8232 -0.176777L20 0ZM0 20L-0.176777 19.8232L-0.25 19.8964V20H0ZM0 60H-0.25V60.1036L-0.176777 60.1768L0 60ZM0 80V79.75H-0.25V80H0ZM0 200H-0.25V200.604L0.176777 200.177L0 200ZM20 180L20.1768 180.177L20.25 180.104V180H20ZM20 100V99.75H19.75V100H20ZM60 180H59.75V180.104L59.8232 180.177L60 180ZM80 200L79.8232 200.177L80.25 200.604V200H80ZM80 20H80.25V19.8964L80.1768 19.8232L80 20ZM60 20H60.25V19.75H60V20ZM40 80L40.1768 79.8232L40.1036 79.75H40V80ZM20 20V19.75H19.75V20H20ZM40 0.25H60V-0.25H40V0.25ZM20 0.25H40V-0.25H20V0.25ZM19.8232 -0.176777L-0.176777 19.8232L0.176777 20.1768L20.1768 0.176777L19.8232 -0.176777ZM-0.25 20V40H0.25V20H-0.25ZM-0.25 40V60H0.25V40H-0.25ZM-0.176777 60.1768L19.8232 80.1768L20.1768 79.8232L0.176777 59.8232L-0.176777 60.1768ZM20 79.75H0V80.25H20V79.75ZM-0.25 80V100H0.25V80H-0.25ZM-0.25 100V120H0.25V100H-0.25ZM-0.25 120V140H0.25V120H-0.25ZM-0.25 140V160H0.25V140H-0.25ZM-0.25 160V180H0.25V160H-0.25ZM-0.25 180V200H0.25V180H-0.25ZM0.176777 200.177L10.1768 190.177L9.82322 189.823L-0.176777 199.823L0.176777 200.177ZM10.1768 190.177L20.1768 180.177L19.8232 179.823L9.82322 189.823L10.1768 190.177ZM20.25 180V160H19.75V180H20.25ZM20.25 160V140H19.75V160H20.25ZM20.25 140V120H19.75V140H20.25ZM20.25 120V100H19.75V120H20.25ZM20 100.25H40V99.75H20V100.25ZM40 100.25H60V99.75H40V100.25ZM60.25 120V100H59.75V120H60.25ZM60.25 140V120H59.75V140H60.25ZM60.25 160V140H59.75V160H60.25ZM60.25 180V160H59.75V180H60.25ZM80.1768 199.823L60.1768 179.823L59.8232 180.177L79.8232 200.177L80.1768 199.823ZM79.75 180V200H80.25V180H79.75ZM79.75 160V180H80.25V160H79.75ZM79.75 140V160H80.25V140H79.75ZM79.75 120V140H80.25V120H79.75ZM79.75 100V120H80.25V100H79.75ZM79.75 80V100H80.25V80H79.75ZM79.75 60V80H80.25V60H79.75ZM79.75 40V60H80.25V40H79.75ZM79.75 20V40H80.25V20H79.75ZM59.8232 0.176777L79.8232 20.1768L80.1768 19.8232L60.1768 -0.176777L59.8232 0.176777ZM60 19.75H40V20.25H60V19.75ZM60.25 40V20H59.75V40H60.25ZM60.25 60V40H59.75V60H60.25ZM60.25 80V60H59.75V80H60.25ZM60.25 100V80H59.75V100H60.25ZM60.1768 99.8232L40.1768 79.8232L39.8232 80.1768L59.8232 100.177L60.1768 99.8232ZM40 79.75H20V80.25H40V79.75ZM20.25 80V60H19.75V80H20.25ZM20.25 60V40H19.75V60H20.25ZM20.25 40V20H19.75V40H20.25ZM40 19.75H20V20.25H40V19.75Z" fill="#A9A9A9" mask="url(#path-1-inside-1)"/>
</svg>
