<svg width="80" height="200" viewBox="0 0 80 200" fill="none" xmlns="http://www.w3.org/2000/svg">
<mask id="path-1-inside-1" fill="white">
<path fill-rule="evenodd" clip-rule="evenodd" d="M20 20V40V60V80L0 60V40V20L20 0H40H60L80 20V40V60V80V100V120V140V160V180L60 200H40H20H0V180V160V140V120V100V80H20V100V120V140V160V180H40H60V160V140V120V100V80V60V40V20H40H20Z"/>
</mask>
<path fill-rule="evenodd" clip-rule="evenodd" d="M20 20V40V60V80L0 60V40V20L20 0H40H60L80 20V40V60V80V100V120V140V160V180L60 200H40H20H0V180V160V140V120V100V80H20V100V120V140V160V180H40H60V160V140V120V100V80V60V40V20H40H20Z" fill="black"/>
<path d="M20 20V19.75H19.75V20H20ZM0 60H-0.25V60.1036L-0.176777 60.1768L0 60ZM0 20L-0.176777 19.8232L-0.25 19.8964V20H0ZM20 0V-0.25H19.8964L19.8232 -0.176777L20 0ZM60 0L60.1768 -0.176777L60.1036 -0.25H60V0ZM80 20H80.25V19.8964L80.1768 19.8232L80 20ZM80 180L80.1768 180.177L80.25 180.104V180H80ZM60 200V200.25H60.1036L60.1768 200.177L60 200ZM0 200H-0.25V200.25H0V200ZM0 80V79.75H-0.25V80H0ZM20 180H19.75V180.25H20V180ZM60 180V180.25H60.25V180H60ZM60 20H60.25V19.75H60V20ZM20.25 40V20H19.75V40H20.25ZM20.25 60V40H19.75V60H20.25ZM20.25 80V60H19.75V80H20.25ZM20.1768 79.8232L0.176777 59.8232L-0.176777 60.1768L19.8232 80.1768L20.1768 79.8232ZM0.25 60V40H-0.25V60H0.25ZM0.25 40V20H-0.25V40H0.25ZM0.176777 20.1768L20.1768 0.176777L19.8232 -0.176777L-0.176777 19.8232L0.176777 20.1768ZM20 0.25H40V-0.25H20V0.25ZM40 0.25H60V-0.25H40V0.25ZM59.8232 0.176777L79.8232 20.1768L80.1768 19.8232L60.1768 -0.176777L59.8232 0.176777ZM79.75 20V40H80.25V20H79.75ZM79.75 40V60H80.25V40H79.75ZM79.75 60V80H80.25V60H79.75ZM79.75 80V100H80.25V80H79.75ZM79.75 100V120H80.25V100H79.75ZM79.75 120V140H80.25V120H79.75ZM79.75 140V160H80.25V140H79.75ZM79.75 160V180H80.25V160H79.75ZM79.8232 179.823L59.8232 199.823L60.1768 200.177L80.1768 180.177L79.8232 179.823ZM60 199.75H40V200.25H60V199.75ZM40 199.75H20V200.25H40V199.75ZM20 199.75H0V200.25H20V199.75ZM0.25 200V180H-0.25V200H0.25ZM0.25 180V160H-0.25V180H0.25ZM0.25 160V140H-0.25V160H0.25ZM0.25 140V120H-0.25V140H0.25ZM0.25 120V100H-0.25V120H0.25ZM0.25 100V80H-0.25V100H0.25ZM0 80.25H20V79.75H0V80.25ZM20.25 100V80H19.75V100H20.25ZM20.25 120V100H19.75V120H20.25ZM20.25 140V120H19.75V140H20.25ZM20.25 160V140H19.75V160H20.25ZM20.25 180V160H19.75V180H20.25ZM40 179.75H20V180.25H40V179.75ZM60 179.75H40V180.25H60V179.75ZM59.75 160V180H60.25V160H59.75ZM59.75 140V160H60.25V140H59.75ZM59.75 120V140H60.25V120H59.75ZM59.75 100V120H60.25V100H59.75ZM59.75 80V100H60.25V80H59.75ZM59.75 60V80H60.25V60H59.75ZM59.75 40V60H60.25V40H59.75ZM59.75 20V40H60.25V20H59.75ZM40 20.25H60V19.75H40V20.25ZM20 20.25H40V19.75H20V20.25Z" fill="#A9A9A9" mask="url(#path-1-inside-1)"/>
</svg>
