<svg width="80" height="200" viewBox="0 0 80 200" fill="none" xmlns="http://www.w3.org/2000/svg">
<mask id="path-1-inside-1" fill="white">
<path fill-rule="evenodd" clip-rule="evenodd" d="M60 0L80 20V40V60V80V100V120V140V160V180V200L60 180V160V140V120V100V80V60V40V20V0ZM40 100H60L40 80H20V60V40V20V0L0 20V40V60L20 80H0V100V120V140V160V180V200L20 180V160V140V120V100H40Z"/>
</mask>
<path fill-rule="evenodd" clip-rule="evenodd" d="M60 0L80 20V40V60V80V100V120V140V160V180V200L60 180V160V140V120V100V80V60V40V20V0ZM40 100H60L40 80H20V60V40V20V0L0 20V40V60L20 80H0V100V120V140V160V180V200L20 180V160V140V120V100H40Z" fill="black"/>
<path d="M80 20H80.25V19.8964L80.1768 19.8232L80 20ZM60 0L60.1768 -0.176777L59.75 -0.603553V0H60ZM80 200L79.8232 200.177L80.25 200.604V200H80ZM60 180H59.75V180.104L59.8232 180.177L60 180ZM40 80L40.1768 79.8232L40.1036 79.75H40V80ZM20 0H20.25V-0.603553L19.8232 -0.176777L20 0ZM0 20L-0.176777 19.8232L-0.25 19.8964V20H0ZM0 60H-0.25V60.1036L-0.176777 60.1768L0 60ZM0 80V79.75H-0.25V80H0ZM0 200H-0.25V200.604L0.176777 200.177L0 200ZM20 180L20.1768 180.177L20.25 180.104V180H20ZM20 100V99.75H19.75V100H20ZM80.1768 19.8232L60.1768 -0.176777L59.8232 0.176777L79.8232 20.1768L80.1768 19.8232ZM80.25 40V20H79.75V40H80.25ZM80.25 60V40H79.75V60H80.25ZM80.25 80V60H79.75V80H80.25ZM80.25 100V80H79.75V100H80.25ZM80.25 120V100H79.75V120H80.25ZM80.25 140V120H79.75V140H80.25ZM80.25 160V140H79.75V160H80.25ZM80.25 180V160H79.75V180H80.25ZM80.25 200V180H79.75V200H80.25ZM59.8232 180.177L79.8232 200.177L80.1768 199.823L60.1768 179.823L59.8232 180.177ZM59.75 160V180H60.25V160H59.75ZM59.75 140V160H60.25V140H59.75ZM59.75 120V140H60.25V120H59.75ZM59.75 100V120H60.25V100H59.75ZM59.75 80V100H60.25V80H59.75ZM59.75 60V80H60.25V60H59.75ZM59.75 40V60H60.25V40H59.75ZM59.75 20V40H60.25V20H59.75ZM59.75 0V20H60.25V0H59.75ZM40 100.25H60V99.75H40V100.25ZM60.1768 99.8232L40.1768 79.8232L39.8232 80.1768L59.8232 100.177L60.1768 99.8232ZM20 80.25H40V79.75H20V80.25ZM19.75 60V80H20.25V60H19.75ZM19.75 40V60H20.25V40H19.75ZM19.75 20V40H20.25V20H19.75ZM19.75 0V20H20.25V0H19.75ZM0.176777 20.1768L20.1768 0.176777L19.8232 -0.176777L-0.176777 19.8232L0.176777 20.1768ZM0.25 40V20H-0.25V40H0.25ZM0.25 60V40H-0.25V60H0.25ZM20.1768 79.8232L0.176777 59.8232L-0.176777 60.1768L19.8232 80.1768L20.1768 79.8232ZM20 79.75H0V80.25H20V79.75ZM-0.25 80V100H0.25V80H-0.25ZM-0.25 100V120H0.25V100H-0.25ZM-0.25 120V140H0.25V120H-0.25ZM-0.25 140V160H0.25V140H-0.25ZM-0.25 160V180H0.25V160H-0.25ZM-0.25 180V200H0.25V180H-0.25ZM0.176777 200.177L20.1768 180.177L19.8232 179.823L-0.176777 199.823L0.176777 200.177ZM20.25 180V160H19.75V180H20.25ZM20.25 160V140H19.75V160H20.25ZM20.25 140V120H19.75V140H20.25ZM20.25 120V100H19.75V120H20.25ZM40 99.75H20V100.25H40V99.75Z" fill="#A9A9A9" mask="url(#path-1-inside-1)"/>
</svg>
