<svg width="20" height="200" viewBox="0 0 20 200" fill="none" xmlns="http://www.w3.org/2000/svg">
<mask id="path-1-inside-1" fill="white">
<path fill-rule="evenodd" clip-rule="evenodd" d="M20 20V0L0 20V40V60L20 80H0V100V120V140V160V180V200L20 180V160V140V120V100V80V60V40V20Z"/>
</mask>
<path fill-rule="evenodd" clip-rule="evenodd" d="M20 20V0L0 20V40V60L20 80H0V100V120V140V160V180V200L20 180V160V140V120V100V80V60V40V20Z" fill="black"/>
<path d="M20 0H20.25V-0.603553L19.8232 -0.176777L20 0ZM0 20L-0.176777 19.8232L-0.25 19.8964V20H0ZM0 60H-0.25V60.1036L-0.176777 60.1768L0 60ZM0 80V79.75H-0.25V80H0ZM0 200H-0.25V200.604L0.176777 200.177L0 200ZM20 180L20.1768 180.177L20.25 180.104V180H20ZM19.75 0V20H20.25V0H19.75ZM0.176777 20.1768L20.1768 0.176777L19.8232 -0.176777L-0.176777 19.8232L0.176777 20.1768ZM0.25 40V20H-0.25V40H0.25ZM0.25 60V40H-0.25V60H0.25ZM20.1768 79.8232L0.176777 59.8232L-0.176777 60.1768L19.8232 80.1768L20.1768 79.8232ZM0 80.25H20V79.75H0V80.25ZM0.25 100V80H-0.25V100H0.25ZM0.25 120V100H-0.25V120H0.25ZM0.25 140V120H-0.25V140H0.25ZM0.25 160V140H-0.25V160H0.25ZM0.25 180V160H-0.25V180H0.25ZM0.25 200V180H-0.25V200H0.25ZM19.8232 179.823L-0.176777 199.823L0.176777 200.177L20.1768 180.177L19.8232 179.823ZM19.75 160V180H20.25V160H19.75ZM19.75 140V160H20.25V140H19.75ZM19.75 120V140H20.25V120H19.75ZM19.75 100V120H20.25V100H19.75ZM19.75 80V100H20.25V80H19.75ZM19.75 60V80H20.25V60H19.75ZM19.75 40V60H20.25V40H19.75ZM19.75 20V40H20.25V20H19.75Z" fill="#A9A9A9" mask="url(#path-1-inside-1)"/>
</svg>
