<svg width="80" height="200" viewBox="0 0 80 200" fill="none" xmlns="http://www.w3.org/2000/svg">
<mask id="path-1-inside-1" fill="white">
<path fill-rule="evenodd" clip-rule="evenodd" d="M60 0L80 20V40V60V80L60 60V40V20V0ZM40 200H60H80V180V160V140V120V100V80H60V100V120V140V160V180H40H20V160V140L0 120V140V160V180L20 200H40Z"/>
</mask>
<path fill-rule="evenodd" clip-rule="evenodd" d="M60 0L80 20V40V60V80L60 60V40V20V0ZM40 200H60H80V180V160V140V120V100V80H60V100V120V140V160V180H40H20V160V140L0 120V140V160V180L20 200H40Z" fill="black"/>
<path d="M80 20H80.25V19.8964L80.1768 19.8232L80 20ZM60 0L60.1768 -0.176777L59.75 -0.603553V0H60ZM60 60H59.75V60.1036L59.8232 60.1768L60 60ZM80 200V200.25H80.25V200H80ZM60 80V79.75H59.75V80H60ZM60 180V180.25H60.25V180H60ZM20 180H19.75V180.25H20V180ZM20 140H20.25V139.896L20.1768 139.823L20 140ZM0 120L0.176777 119.823L-0.25 119.396V120H0ZM0 180H-0.25V180.104L-0.176777 180.177L0 180ZM20 200L19.8232 200.177L19.8964 200.25H20V200ZM80.1768 19.8232L60.1768 -0.176777L59.8232 0.176777L79.8232 20.1768L80.1768 19.8232ZM80.25 40V20H79.75V40H80.25ZM80.25 60V40H79.75V60H80.25ZM80.25 80V60H79.75V80H80.25ZM59.8232 60.1768L79.8232 80.1768L80.1768 79.8232L60.1768 59.8232L59.8232 60.1768ZM59.75 40V60H60.25V40H59.75ZM59.75 20V40H60.25V20H59.75ZM59.75 0V20H60.25V0H59.75ZM40 200.25H60V199.75H40V200.25ZM60 200.25H80V199.75H60V200.25ZM80.25 200V180H79.75V200H80.25ZM80.25 180V160H79.75V180H80.25ZM80.25 160V140H79.75V160H80.25ZM80.25 140V120H79.75V140H80.25ZM80.25 120V100H79.75V120H80.25ZM80.25 100V80H79.75V100H80.25ZM80 79.75H60V80.25H80V79.75ZM59.75 80V100H60.25V80H59.75ZM59.75 100V120H60.25V100H59.75ZM59.75 120V140H60.25V120H59.75ZM59.75 140V160H60.25V140H59.75ZM59.75 160V180H60.25V160H59.75ZM60 179.75H40V180.25H60V179.75ZM20 180.25H40V179.75H20V180.25ZM19.75 160V180H20.25V160H19.75ZM19.75 140V160H20.25V140H19.75ZM-0.176777 120.177L19.8232 140.177L20.1768 139.823L0.176777 119.823L-0.176777 120.177ZM0.25 140V120H-0.25V140H0.25ZM0.25 160V140H-0.25V160H0.25ZM0.25 180V160H-0.25V180H0.25ZM20.1768 199.823L0.176777 179.823L-0.176777 180.177L19.8232 200.177L20.1768 199.823ZM40 199.75H20V200.25H40V199.75Z" fill="#A9A9A9" mask="url(#path-1-inside-1)"/>
</svg>
