<svg width="80" height="200" viewBox="0 0 80 200" fill="none" xmlns="http://www.w3.org/2000/svg">
<mask id="path-1-inside-1" fill="white">
<path fill-rule="evenodd" clip-rule="evenodd" d="M20 0V20V40V60V80L0 60V40V20L20 0ZM40 140L20 120L40 100L60 80L80 60H60L40 80L20 100V80H0V100V120V140V160V180V200H20V180V160V140L40 160L60 180L80 200V180L60 160L40 140Z"/>
</mask>
<path fill-rule="evenodd" clip-rule="evenodd" d="M20 0V20V40V60V80L0 60V40V20L20 0ZM40 140L20 120L40 100L60 80L80 60H60L40 80L20 100V80H0V100V120V140V160V180V200H20V180V160V140L40 160L60 180L80 200V180L60 160L40 140Z" fill="black"/>
<path d="M20 0H20.25V-0.603553L19.8232 -0.176777L20 0ZM0 60H-0.25V60.1036L-0.176777 60.1768L0 60ZM0 20L-0.176777 19.8232L-0.25 19.8964V20H0ZM20 120L19.8232 119.823L19.6464 120L19.8232 120.177L20 120ZM80 60L80.1768 60.1768L80.6036 59.75H80V60ZM60 60V59.75H59.8964L59.8232 59.8232L60 60ZM20 100H19.75V100.604L20.1768 100.177L20 100ZM0 80V79.75H-0.25V80H0ZM0 200H-0.25V200.25H0V200ZM20 200V200.25H20.25V200H20ZM20 140L20.1768 139.823L19.75 139.396V140H20ZM80 200L79.8232 200.177L80.25 200.604V200H80ZM80 180H80.25V179.896L80.1768 179.823L80 180ZM20.25 20V0H19.75V20H20.25ZM20.25 40V20H19.75V40H20.25ZM20.25 60V40H19.75V60H20.25ZM20.25 80V60H19.75V80H20.25ZM-0.176777 60.1768L19.8232 80.1768L20.1768 79.8232L0.176777 59.8232L-0.176777 60.1768ZM-0.25 40V60H0.25V40H-0.25ZM-0.25 20V40H0.25V20H-0.25ZM19.8232 -0.176777L-0.176777 19.8232L0.176777 20.1768L20.1768 0.176777L19.8232 -0.176777ZM40.1768 139.823L20.1768 119.823L19.8232 120.177L39.8232 140.177L40.1768 139.823ZM20.1768 120.177L40.1768 100.177L39.8232 99.8232L19.8232 119.823L20.1768 120.177ZM40.1768 100.177L60.1768 80.1768L59.8232 79.8232L39.8232 99.8232L40.1768 100.177ZM60.1768 80.1768L80.1768 60.1768L79.8232 59.8232L59.8232 79.8232L60.1768 80.1768ZM80 59.75H60V60.25H80V59.75ZM59.8232 59.8232L39.8232 79.8232L40.1768 80.1768L60.1768 60.1768L59.8232 59.8232ZM39.8232 79.8232L19.8232 99.8232L20.1768 100.177L40.1768 80.1768L39.8232 79.8232ZM20.25 100V80H19.75V100H20.25ZM20 79.75H0V80.25H20V79.75ZM-0.25 80V100H0.25V80H-0.25ZM-0.25 100V120H0.25V100H-0.25ZM-0.25 120V140H0.25V120H-0.25ZM-0.25 140V160H0.25V140H-0.25ZM-0.25 160V180H0.25V160H-0.25ZM-0.25 180V200H0.25V180H-0.25ZM0 200.25H20V199.75H0V200.25ZM20.25 200V180H19.75V200H20.25ZM20.25 180V160H19.75V180H20.25ZM20.25 160V140H19.75V160H20.25ZM40.1768 159.823L20.1768 139.823L19.8232 140.177L39.8232 160.177L40.1768 159.823ZM39.8232 160.177L59.8232 180.177L60.1768 179.823L40.1768 159.823L39.8232 160.177ZM59.8232 180.177L79.8232 200.177L80.1768 199.823L60.1768 179.823L59.8232 180.177ZM80.25 200V180H79.75V200H80.25ZM80.1768 179.823L60.1768 159.823L59.8232 160.177L79.8232 180.177L80.1768 179.823ZM60.1768 159.823L40.1768 139.823L39.8232 140.177L59.8232 160.177L60.1768 159.823Z" fill="#A9A9A9" mask="url(#path-1-inside-1)"/>
</svg>
