<svg width="80" height="200" viewBox="0 0 80 200" fill="none" xmlns="http://www.w3.org/2000/svg">
<mask id="path-1-inside-1" fill="white">
<path fill-rule="evenodd" clip-rule="evenodd" d="M20 0V20V40V60V80L0 60V40V20L20 0ZM20 180V160V140V120V100V80H0V100V120V140V160V180V200H20H40H60H80V180H60H40H20Z"/>
</mask>
<path fill-rule="evenodd" clip-rule="evenodd" d="M20 0V20V40V60V80L0 60V40V20L20 0ZM20 180V160V140V120V100V80H0V100V120V140V160V180V200H20H40H60H80V180H60H40H20Z" fill="black"/>
<path d="M20 0H20.25V-0.603553L19.8232 -0.176777L20 0ZM0 60H-0.25V60.1036L-0.176777 60.1768L0 60ZM0 20L-0.176777 19.8232L-0.25 19.8964V20H0ZM20 180H19.75V180.25H20V180ZM0 80V79.75H-0.25V80H0ZM0 200H-0.25V200.25H0V200ZM80 200V200.25H80.25V200H80ZM80 180H80.25V179.75H80V180ZM20.25 20V0H19.75V20H20.25ZM20.25 40V20H19.75V40H20.25ZM20.25 60V40H19.75V60H20.25ZM20.25 80V60H19.75V80H20.25ZM-0.176777 60.1768L19.8232 80.1768L20.1768 79.8232L0.176777 59.8232L-0.176777 60.1768ZM-0.25 40V60H0.25V40H-0.25ZM-0.25 20V40H0.25V20H-0.25ZM19.8232 -0.176777L-0.176777 19.8232L0.176777 20.1768L20.1768 0.176777L19.8232 -0.176777ZM20.25 180V160H19.75V180H20.25ZM20.25 160V140H19.75V160H20.25ZM20.25 140V120H19.75V140H20.25ZM20.25 120V100H19.75V120H20.25ZM20.25 100V80H19.75V100H20.25ZM20 79.75H0V80.25H20V79.75ZM-0.25 80V100H0.25V80H-0.25ZM-0.25 100V120H0.25V100H-0.25ZM-0.25 120V140H0.25V120H-0.25ZM-0.25 140V160H0.25V140H-0.25ZM-0.25 160V180H0.25V160H-0.25ZM-0.25 180V200H0.25V180H-0.25ZM0 200.25H20V199.75H0V200.25ZM40 199.75H20V200.25H40V199.75ZM40 200.25H60V199.75H40V200.25ZM60 200.25H80V199.75H60V200.25ZM80.25 200V180H79.75V200H80.25ZM80 179.75H60V180.25H80V179.75ZM60 179.75H40V180.25H60V179.75ZM20 180.25H40V179.75H20V180.25Z" fill="#A9A9A9" mask="url(#path-1-inside-1)"/>
</svg>
