<svg width="140" height="200" viewBox="0 0 140 200" fill="none" xmlns="http://www.w3.org/2000/svg">
<mask id="path-1-inside-1" fill="white">
<path fill-rule="evenodd" clip-rule="evenodd" d="M60 0L80 20V40V60V80V100V120V140V160L60 140V120V100V80V60V40V20H40H20V40V60V80L0 60V40V20L20 0H40H60ZM20 80V100V120V140V160V180L0 200V180V160V140V120V100V80H20ZM80 20H100H120V40V60V80V100V120V140V160V180L140 200V180V160V140V120V100V80V60V40V20L120 0H100L80 20Z"/>
</mask>
<path fill-rule="evenodd" clip-rule="evenodd" d="M60 0L80 20V40V60V80V100V120V140V160L60 140V120V100V80V60V40V20H40H20V40V60V80L0 60V40V20L20 0H40H60ZM20 80V100V120V140V160V180L0 200V180V160V140V120V100V80H20ZM80 20H100H120V40V60V80V100V120V140V160V180L140 200V180V160V140V120V100V80V60V40V20L120 0H100L80 20Z" fill="black"/>
<path d="M60 0L60.1768 -0.176777L60.1036 -0.25H60V0ZM80 160L79.8232 160.177L80.25 160.604V160H80ZM60 140H59.75V140.104L59.8232 140.177L60 140ZM60 20H60.25V19.75H60V20ZM20 20V19.75H19.75V20H20ZM0 60H-0.25V60.1036L-0.176777 60.1768L0 60ZM0 20L-0.176777 19.8232L-0.25 19.8964V20H0ZM20 0V-0.25H19.8964L19.8232 -0.176777L20 0ZM20 180L20.1768 180.177L20.25 180.104V180H20ZM0 200H-0.25V200.604L0.176777 200.177L0 200ZM0 80V79.75H-0.25V80H0ZM120 20H120.25V19.75H120V20ZM120 180H119.75V180.104L119.823 180.177L120 180ZM140 200L139.823 200.177L140.25 200.604V200H140ZM140 20H140.25V19.8964L140.177 19.8232L140 20ZM120 0L120.177 -0.176777L120.104 -0.25H120V0ZM100 0V-0.25H99.8964L99.8232 -0.176777L100 0ZM80.1768 19.8232L60.1768 -0.176777L59.8232 0.176777L79.8232 20.1768L80.1768 19.8232ZM80.25 40V20H79.75V40H80.25ZM80.25 60V40H79.75V60H80.25ZM80.25 80V60H79.75V80H80.25ZM80.25 100V80H79.75V100H80.25ZM80.25 120V100H79.75V120H80.25ZM80.25 140V120H79.75V140H80.25ZM80.25 160V140H79.75V160H80.25ZM59.8232 140.177L79.8232 160.177L80.1768 159.823L60.1768 139.823L59.8232 140.177ZM59.75 120V140H60.25V120H59.75ZM59.75 100V120H60.25V100H59.75ZM59.75 80V100H60.25V80H59.75ZM59.75 60V80H60.25V60H59.75ZM59.75 40V60H60.25V40H59.75ZM59.75 20V40H60.25V20H59.75ZM60 19.75H40V20.25H60V19.75ZM20 20.25H40V19.75H20V20.25ZM20.25 40V20H19.75V40H20.25ZM20.25 60V40H19.75V60H20.25ZM20.25 80V60H19.75V80H20.25ZM-0.176777 60.1768L19.8232 80.1768L20.1768 79.8232L0.176777 59.8232L-0.176777 60.1768ZM-0.25 40V60H0.25V40H-0.25ZM-0.25 20V40H0.25V20H-0.25ZM19.8232 -0.176777L-0.176777 19.8232L0.176777 20.1768L20.1768 0.176777L19.8232 -0.176777ZM40 -0.25H20V0.25H40V-0.25ZM40 0.25H60V-0.25H40V0.25ZM20.25 100V80H19.75V100H20.25ZM20.25 120V100H19.75V120H20.25ZM20.25 140V120H19.75V140H20.25ZM20.25 160V140H19.75V160H20.25ZM20.25 180V160H19.75V180H20.25ZM0.176777 200.177L20.1768 180.177L19.8232 179.823L-0.176777 199.823L0.176777 200.177ZM-0.25 180V200H0.25V180H-0.25ZM-0.25 160V180H0.25V160H-0.25ZM-0.25 140V160H0.25V140H-0.25ZM-0.25 120V140H0.25V120H-0.25ZM-0.25 100V120H0.25V100H-0.25ZM-0.25 80V100H0.25V80H-0.25ZM20 79.75H0V80.25H20V79.75ZM80 20.25H100V19.75H80V20.25ZM100 20.25H120V19.75H100V20.25ZM119.75 20V40H120.25V20H119.75ZM119.75 40V60H120.25V40H119.75ZM119.75 60V80H120.25V60H119.75ZM119.75 80V100H120.25V80H119.75ZM119.75 100V120H120.25V100H119.75ZM119.75 120V140H120.25V120H119.75ZM119.75 140V160H120.25V140H119.75ZM119.75 160V180H120.25V160H119.75ZM119.823 180.177L139.823 200.177L140.177 199.823L120.177 179.823L119.823 180.177ZM140.25 200V180H139.75V200H140.25ZM140.25 180V160H139.75V180H140.25ZM140.25 160V140H139.75V160H140.25ZM140.25 140V120H139.75V140H140.25ZM140.25 120V100H139.75V120H140.25ZM140.25 100V80H139.75V100H140.25ZM140.25 80V60H139.75V80H140.25ZM140.25 60V40H139.75V60H140.25ZM140.25 40V20H139.75V40H140.25ZM140.177 19.8232L120.177 -0.176777L119.823 0.176777L139.823 20.1768L140.177 19.8232ZM120 -0.25H100V0.25H120V-0.25ZM99.8232 -0.176777L79.8232 19.8232L80.1768 20.1768L100.177 0.176777L99.8232 -0.176777Z" fill="#A9A9A9" mask="url(#path-1-inside-1)"/>
</svg>
