<svg width="80" height="200" viewBox="0 0 80 200" fill="none" xmlns="http://www.w3.org/2000/svg">
<mask id="path-1-inside-1" fill="white">
<path fill-rule="evenodd" clip-rule="evenodd" d="M60 0L80 20V40V60V80V100V120V140V160V180V200L60 180V160V140V120L40 100L20 80L0 60V40V20L20 40V60L40 80L60 100V80V60V40V20V0ZM20 80V100V120V140V160V180L0 200V180V160V140V120V100V80H20Z"/>
</mask>
<path fill-rule="evenodd" clip-rule="evenodd" d="M60 0L80 20V40V60V80V100V120V140V160V180V200L60 180V160V140V120L40 100L20 80L0 60V40V20L20 40V60L40 80L60 100V80V60V40V20V0ZM20 80V100V120V140V160V180L0 200V180V160V140V120V100V80H20Z" fill="black"/>
<path d="M80 20H80.25V19.8964L80.1768 19.8232L80 20ZM60 0L60.1768 -0.176777L59.75 -0.603553V0H60ZM80 200L79.8232 200.177L80.25 200.604V200H80ZM60 180H59.75V180.104L59.8232 180.177L60 180ZM60 120H60.25V119.896L60.1768 119.823L60 120ZM0 60H-0.25V60.1036L-0.176777 60.1768L0 60ZM0 20L0.176777 19.8232L-0.25 19.3964V20H0ZM20 40H20.25V39.8964L20.1768 39.8232L20 40ZM20 60H19.75V60.1036L19.8232 60.1768L20 60ZM60 100L59.8232 100.177L60.25 100.604V100H60ZM20 180L20.1768 180.177L20.25 180.104V180H20ZM0 200H-0.25V200.604L0.176777 200.177L0 200ZM0 80V79.75H-0.25V80H0ZM80.1768 19.8232L60.1768 -0.176777L59.8232 0.176777L79.8232 20.1768L80.1768 19.8232ZM80.25 40V20H79.75V40H80.25ZM80.25 60V40H79.75V60H80.25ZM80.25 80V60H79.75V80H80.25ZM80.25 100V80H79.75V100H80.25ZM80.25 120V100H79.75V120H80.25ZM80.25 140V120H79.75V140H80.25ZM80.25 160V140H79.75V160H80.25ZM80.25 180V160H79.75V180H80.25ZM80.25 200V180H79.75V200H80.25ZM59.8232 180.177L79.8232 200.177L80.1768 199.823L60.1768 179.823L59.8232 180.177ZM59.75 160V180H60.25V160H59.75ZM59.75 140V160H60.25V140H59.75ZM59.75 120V140H60.25V120H59.75ZM39.8232 100.177L59.8232 120.177L60.1768 119.823L40.1768 99.8232L39.8232 100.177ZM40.1768 99.8232L20.1768 79.8232L19.8232 80.1768L39.8232 100.177L40.1768 99.8232ZM-0.176777 60.1768L19.8232 80.1768L20.1768 79.8232L0.176777 59.8232L-0.176777 60.1768ZM-0.25 40V60H0.25V40H-0.25ZM-0.25 20V40H0.25V20H-0.25ZM20.1768 39.8232L0.176777 19.8232L-0.176777 20.1768L19.8232 40.1768L20.1768 39.8232ZM20.25 60V40H19.75V60H20.25ZM40.1768 79.8232L20.1768 59.8232L19.8232 60.1768L39.8232 80.1768L40.1768 79.8232ZM60.1768 99.8232L40.1768 79.8232L39.8232 80.1768L59.8232 100.177L60.1768 99.8232ZM59.75 80V100H60.25V80H59.75ZM59.75 60V80H60.25V60H59.75ZM59.75 40V60H60.25V40H59.75ZM59.75 20V40H60.25V20H59.75ZM59.75 0V20H60.25V0H59.75ZM20.25 100V80H19.75V100H20.25ZM20.25 120V100H19.75V120H20.25ZM20.25 140V120H19.75V140H20.25ZM20.25 160V140H19.75V160H20.25ZM20.25 180V160H19.75V180H20.25ZM0.176777 200.177L20.1768 180.177L19.8232 179.823L-0.176777 199.823L0.176777 200.177ZM-0.25 180V200H0.25V180H-0.25ZM-0.25 160V180H0.25V160H-0.25ZM-0.25 140V160H0.25V140H-0.25ZM-0.25 120V140H0.25V120H-0.25ZM-0.25 100V120H0.25V100H-0.25ZM-0.25 80V100H0.25V80H-0.25ZM20 79.75H0V80.25H20V79.75Z" fill="#A9A9A9" mask="url(#path-1-inside-1)"/>
</svg>
