<svg width="80" height="200" viewBox="0 0 80 200" fill="none" xmlns="http://www.w3.org/2000/svg">
<mask id="path-1-inside-1" fill="white">
<path fill-rule="evenodd" clip-rule="evenodd" d="M40 0H60L80 20V40V60V80L60 100H40L20 80H40H60V60V40V20H40H20V40V60V80L0 60V40V20L20 0H40ZM20 80V100V120V140V160V180L0 200V180V160V140V120V100V80H20Z"/>
</mask>
<path fill-rule="evenodd" clip-rule="evenodd" d="M40 0H60L80 20V40V60V80L60 100H40L20 80H40H60V60V40V20H40H20V40V60V80L0 60V40V20L20 0H40ZM20 80V100V120V140V160V180L0 200V180V160V140V120V100V80H20Z" fill="black"/>
<path d="M60 0L60.1768 -0.176777L60.1036 -0.25H60V0ZM80 20H80.25V19.8964L80.1768 19.8232L80 20ZM80 80L80.1768 80.1768L80.25 80.1036V80H80ZM60 100V100.25H60.1036L60.1768 100.177L60 100ZM40 100L39.8232 100.177L39.8964 100.25H40V100ZM60 80V80.25H60.25V80H60ZM60 20H60.25V19.75H60V20ZM20 20V19.75H19.75V20H20ZM0 60H-0.25V60.1036L-0.176777 60.1768L0 60ZM0 20L-0.176777 19.8232L-0.25 19.8964V20H0ZM20 0V-0.25H19.8964L19.8232 -0.176777L20 0ZM20 180L20.1768 180.177L20.25 180.104V180H20ZM0 200H-0.25V200.604L0.176777 200.177L0 200ZM0 80V79.75H-0.25V80H0ZM60 -0.25H40V0.25H60V-0.25ZM80.1768 19.8232L60.1768 -0.176777L59.8232 0.176777L79.8232 20.1768L80.1768 19.8232ZM80.25 40V20H79.75V40H80.25ZM80.25 60V40H79.75V60H80.25ZM80.25 80V60H79.75V80H80.25ZM60.1768 100.177L80.1768 80.1768L79.8232 79.8232L59.8232 99.8232L60.1768 100.177ZM40 100.25H60V99.75H40V100.25ZM40.1768 99.8232L20.1768 79.8232L19.8232 80.1768L39.8232 100.177L40.1768 99.8232ZM20 80.25H40V79.75H20V80.25ZM60 79.75H40V80.25H60V79.75ZM59.75 60V80H60.25V60H59.75ZM59.75 40V60H60.25V40H59.75ZM59.75 20V40H60.25V20H59.75ZM40 20.25H60V19.75H40V20.25ZM20 20.25H40V19.75H20V20.25ZM20.25 40V20H19.75V40H20.25ZM20.25 60V40H19.75V60H20.25ZM20.25 80V60H19.75V80H20.25ZM-0.176777 60.1768L19.8232 80.1768L20.1768 79.8232L0.176777 59.8232L-0.176777 60.1768ZM-0.25 40V60H0.25V40H-0.25ZM-0.25 20V40H0.25V20H-0.25ZM19.8232 -0.176777L-0.176777 19.8232L0.176777 20.1768L20.1768 0.176777L19.8232 -0.176777ZM40 -0.25H20V0.25H40V-0.25ZM20.25 100V80H19.75V100H20.25ZM20.25 120V100H19.75V120H20.25ZM20.25 140V120H19.75V140H20.25ZM20.25 160V140H19.75V160H20.25ZM20.25 180V160H19.75V180H20.25ZM0.176777 200.177L20.1768 180.177L19.8232 179.823L-0.176777 199.823L0.176777 200.177ZM-0.25 180V200H0.25V180H-0.25ZM-0.25 160V180H0.25V160H-0.25ZM-0.25 140V160H0.25V140H-0.25ZM-0.25 120V140H0.25V120H-0.25ZM-0.25 100V120H0.25V100H-0.25ZM-0.25 80V100H0.25V80H-0.25ZM20 79.75H0V80.25H20V79.75Z" fill="#A9A9A9" mask="url(#path-1-inside-1)"/>
</svg>
