<svg width="80" height="200" viewBox="0 0 80 200" fill="none" xmlns="http://www.w3.org/2000/svg">
<mask id="path-1-inside-1" fill="white">
<path fill-rule="evenodd" clip-rule="evenodd" d="M40 0H60L80 20V40L60 20H40H20V40V60V80L0 60V40V20L20 0H40ZM40 80H20H0L20 100H40H60V120V140V160V180H40H20L0 160V180L20 200H40H60L80 180V160V140V120V100L60 80H40Z"/>
</mask>
<path fill-rule="evenodd" clip-rule="evenodd" d="M40 0H60L80 20V40L60 20H40H20V40V60V80L0 60V40V20L20 0H40ZM40 80H20H0L20 100H40H60V120V140V160V180H40H20L0 160V180L20 200H40H60L80 180V160V140V120V100L60 80H40Z" fill="black"/>
<path d="M60 0L60.1768 -0.176777L60.1036 -0.25H60V0ZM80 20H80.25V19.8964L80.1768 19.8232L80 20ZM80 40L79.8232 40.1768L80.25 40.6036V40H80ZM60 20L60.1768 19.8232L60.1036 19.75H60V20ZM20 20V19.75H19.75V20H20ZM0 60H-0.25V60.1036L-0.176777 60.1768L0 60ZM0 20L-0.176777 19.8232L-0.25 19.8964V20H0ZM20 0V-0.25H19.8964L19.8232 -0.176777L20 0ZM0 80V79.75H-0.603553L-0.176777 80.1768L0 80ZM20 100L19.8232 100.177L19.8964 100.25H20V100ZM60 100H60.25V99.75H60V100ZM60 180V180.25H60.25V180H60ZM20 180L19.8232 180.177L19.8964 180.25H20V180ZM0 160L0.176777 159.823L-0.25 159.396V160H0ZM0 180H-0.25V180.104L-0.176777 180.177L0 180ZM20 200L19.8232 200.177L19.8964 200.25H20V200ZM60 200V200.25H60.1036L60.1768 200.177L60 200ZM80 180L80.1768 180.177L80.25 180.104V180H80ZM80 100H80.25V99.8964L80.1768 99.8232L80 100ZM60 80L60.1768 79.8232L60.1036 79.75H60V80ZM60 -0.25H40V0.25H60V-0.25ZM80.1768 19.8232L60.1768 -0.176777L59.8232 0.176777L79.8232 20.1768L80.1768 19.8232ZM80.25 40V20H79.75V40H80.25ZM59.8232 20.1768L79.8232 40.1768L80.1768 39.8232L60.1768 19.8232L59.8232 20.1768ZM40 20.25H60V19.75H40V20.25ZM20 20.25H40V19.75H20V20.25ZM20.25 40V20H19.75V40H20.25ZM20.25 60V40H19.75V60H20.25ZM20.25 80V60H19.75V80H20.25ZM-0.176777 60.1768L19.8232 80.1768L20.1768 79.8232L0.176777 59.8232L-0.176777 60.1768ZM-0.25 40V60H0.25V40H-0.25ZM-0.25 20V40H0.25V20H-0.25ZM19.8232 -0.176777L-0.176777 19.8232L0.176777 20.1768L20.1768 0.176777L19.8232 -0.176777ZM40 -0.25H20V0.25H40V-0.25ZM20 80.25H40V79.75H20V80.25ZM20 79.75H0V80.25H20V79.75ZM-0.176777 80.1768L19.8232 100.177L20.1768 99.8232L0.176777 79.8232L-0.176777 80.1768ZM40 99.75H20V100.25H40V99.75ZM40 100.25H60V99.75H40V100.25ZM59.75 100V120H60.25V100H59.75ZM59.75 120V140H60.25V120H59.75ZM59.75 140V160H60.25V140H59.75ZM59.75 160V180H60.25V160H59.75ZM60 179.75H40V180.25H60V179.75ZM40 179.75H20V180.25H40V179.75ZM20.1768 179.823L0.176777 159.823L-0.176777 160.177L19.8232 180.177L20.1768 179.823ZM-0.25 160V180H0.25V160H-0.25ZM-0.176777 180.177L19.8232 200.177L20.1768 199.823L0.176777 179.823L-0.176777 180.177ZM20 200.25H40V199.75H20V200.25ZM40 200.25H60V199.75H40V200.25ZM60.1768 200.177L80.1768 180.177L79.8232 179.823L59.8232 199.823L60.1768 200.177ZM80.25 180V160H79.75V180H80.25ZM80.25 160V140H79.75V160H80.25ZM80.25 140V120H79.75V140H80.25ZM80.25 120V100H79.75V120H80.25ZM80.1768 99.8232L60.1768 79.8232L59.8232 80.1768L79.8232 100.177L80.1768 99.8232ZM60 79.75H40V80.25H60V79.75Z" fill="#A9A9A9" mask="url(#path-1-inside-1)"/>
</svg>
