<svg width="100" height="200" viewBox="0 0 100 200" fill="none" xmlns="http://www.w3.org/2000/svg">
<mask id="path-1-inside-1" fill="white">
<path fill-rule="evenodd" clip-rule="evenodd" d="M20 0H0L20 20H40V40V60L55 79L60 80H40V100V120V140V160V180V200L60 180V160V140V120V100V80V60V40V20H80L100 0H80H60H40H20Z"/>
</mask>
<path fill-rule="evenodd" clip-rule="evenodd" d="M20 0H0L20 20H40V40V60L55 79L60 80H40V100V120V140V160V180V200L60 180V160V140V120V100V80V60V40V20H80L100 0H80H60H40H20Z" fill="black"/>
<path d="M0 0V-0.25H-0.603553L-0.176777 0.176777L0 0ZM20 20L19.8232 20.1768L19.8964 20.25H20V20ZM40 20H40.25V19.75H40V20ZM40 60H39.75V60.0868L39.8038 60.1549L40 60ZM55 79L54.8038 79.1549L54.8608 79.2271L54.951 79.2451L55 79ZM40 80V79.75H39.75V80H40ZM40 200H39.75V200.604L40.1768 200.177L40 200ZM60 180L60.1768 180.177L60.25 180.104V180H60ZM60 20V19.75H59.75V20H60ZM80 20V20.25H80.1036L80.1768 20.1768L80 20ZM100 0L100.177 0.176777L100.604 -0.25H100V0ZM0 0.25H20V-0.25H0V0.25ZM20.1768 19.8232L0.176777 -0.176777L-0.176777 0.176777L19.8232 20.1768L20.1768 19.8232ZM40 19.75H20V20.25H40V19.75ZM40.25 40V20H39.75V40H40.25ZM40.25 60V40H39.75V60H40.25ZM55.1962 78.8451L40.1962 59.8451L39.8038 60.1549L54.8038 79.1549L55.1962 78.8451ZM60.049 79.7549L55.049 78.7549L54.951 79.2451L59.951 80.2451L60.049 79.7549ZM60 79.75H40V80.25H60V79.75ZM39.75 80V100H40.25V80H39.75ZM39.75 100V120H40.25V100H39.75ZM40.25 140V120H39.75V140H40.25ZM40.25 160V140H39.75V160H40.25ZM40.25 180V160H39.75V180H40.25ZM40.25 200V180H39.75V200H40.25ZM59.8232 179.823L39.8232 199.823L40.1768 200.177L60.1768 180.177L59.8232 179.823ZM59.75 160V180H60.25V160H59.75ZM59.75 140V160H60.25V140H59.75ZM59.75 120V140H60.25V120H59.75ZM60.25 120V100H59.75V120H60.25ZM60.25 100V80H59.75V100H60.25ZM59.75 60V80H60.25V60H59.75ZM59.75 40V60H60.25V40H59.75ZM59.75 20V40H60.25V20H59.75ZM80 19.75H60V20.25H80V19.75ZM99.8232 -0.176777L79.8232 19.8232L80.1768 20.1768L100.177 0.176777L99.8232 -0.176777ZM80 0.25H100V-0.25H80V0.25ZM60 0.25H80V-0.25H60V0.25ZM40 0.25H60V-0.25H40V0.25ZM20 0.25H40V-0.25H20V0.25Z" fill="#A9A9A9" mask="url(#path-1-inside-1)"/>
</svg>
