<svg width="80" height="200" viewBox="0 0 80 200" fill="none" xmlns="http://www.w3.org/2000/svg">
<mask id="path-1-inside-1" fill="white">
<path fill-rule="evenodd" clip-rule="evenodd" d="M60 0L80 20V40V60V80V100V120V140V160L60 180L40 200L20 180L0 160V140V120V100V80H20V100V120V140V160L40 180L60 160V140V120V100V80V60V40V20V0ZM20 80L0 60V40V20L20 0V20V40V60V80Z"/>
</mask>
<path fill-rule="evenodd" clip-rule="evenodd" d="M60 0L80 20V40V60V80V100V120V140V160L60 180L40 200L20 180L0 160V140V120V100V80H20V100V120V140V160L40 180L60 160V140V120V100V80V60V40V20V0ZM20 80L0 60V40V20L20 0V20V40V60V80Z" fill="black"/>
<path d="M80 20H80.25V19.8964L80.1768 19.8232L80 20ZM60 0L60.1768 -0.176777L59.75 -0.603553V0H60ZM80 160L80.1768 160.177L80.25 160.104V160H80ZM40 200L39.8232 200.177L40 200.354L40.1768 200.177L40 200ZM0 160H-0.25V160.104L-0.176777 160.177L0 160ZM0 80V79.75H-0.25V80H0ZM20 160H19.75V160.104L19.8232 160.177L20 160ZM40 180L39.8232 180.177L40 180.354L40.1768 180.177L40 180ZM60 160L60.1768 160.177L60.25 160.104V160H60ZM0 60H-0.25V60.1036L-0.176777 60.1768L0 60ZM0 20L-0.176777 19.8232L-0.25 19.8964V20H0ZM20 0H20.25V-0.603553L19.8232 -0.176777L20 0ZM80.1768 19.8232L60.1768 -0.176777L59.8232 0.176777L79.8232 20.1768L80.1768 19.8232ZM80.25 40V20H79.75V40H80.25ZM80.25 60V40H79.75V60H80.25ZM80.25 80V60H79.75V80H80.25ZM80.25 100V80H79.75V100H80.25ZM80.25 120V100H79.75V120H80.25ZM80.25 140V120H79.75V140H80.25ZM80.25 160V140H79.75V160H80.25ZM60.1768 180.177L80.1768 160.177L79.8232 159.823L59.8232 179.823L60.1768 180.177ZM40.1768 200.177L60.1768 180.177L59.8232 179.823L39.8232 199.823L40.1768 200.177ZM19.8232 180.177L39.8232 200.177L40.1768 199.823L20.1768 179.823L19.8232 180.177ZM-0.176777 160.177L19.8232 180.177L20.1768 179.823L0.176777 159.823L-0.176777 160.177ZM-0.25 140V160H0.25V140H-0.25ZM-0.25 120V140H0.25V120H-0.25ZM-0.25 100V120H0.25V100H-0.25ZM-0.25 80V100H0.25V80H-0.25ZM20 79.75H0V80.25H20V79.75ZM20.25 100V80H19.75V100H20.25ZM20.25 120V100H19.75V120H20.25ZM20.25 140V120H19.75V140H20.25ZM20.25 160V140H19.75V160H20.25ZM19.8232 160.177L39.8232 180.177L40.1768 179.823L20.1768 159.823L19.8232 160.177ZM59.8232 159.823L39.8232 179.823L40.1768 180.177L60.1768 160.177L59.8232 159.823ZM59.75 140V160H60.25V140H59.75ZM59.75 120V140H60.25V120H59.75ZM59.75 100V120H60.25V100H59.75ZM59.75 80V100H60.25V80H59.75ZM59.75 60V80H60.25V60H59.75ZM59.75 40V60H60.25V40H59.75ZM59.75 20V40H60.25V20H59.75ZM59.75 0V20H60.25V0H59.75ZM-0.176777 60.1768L19.8232 80.1768L20.1768 79.8232L0.176777 59.8232L-0.176777 60.1768ZM-0.25 40V60H0.25V40H-0.25ZM-0.25 20V40H0.25V20H-0.25ZM19.8232 -0.176777L-0.176777 19.8232L0.176777 20.1768L20.1768 0.176777L19.8232 -0.176777ZM20.25 20V0H19.75V20H20.25ZM20.25 40V20H19.75V40H20.25ZM20.25 60V40H19.75V60H20.25ZM20.25 80V60H19.75V80H20.25Z" fill="#A9A9A9" mask="url(#path-1-inside-1)"/>
</svg>
