<svg width="140" height="200" viewBox="0 0 140 200" fill="none" xmlns="http://www.w3.org/2000/svg">
<mask id="path-1-inside-1" fill="white">
<path fill-rule="evenodd" clip-rule="evenodd" d="M20 20V0L0 20V40V60L20 80H0V100V120V140V160V180L20 200H40H60L80 180V200H100H120L140 180V160V140V120V100V80V60V40V20L120 0V20V40V60V80V100V120V140V160V180H100H80V160V140V120V100V80V60V40L60 60V80V100V120V140V160V180H40H20V160V140V120V100V80V60V40V20Z"/>
</mask>
<path fill-rule="evenodd" clip-rule="evenodd" d="M20 20V0L0 20V40V60L20 80H0V100V120V140V160V180L20 200H40H60L80 180V200H100H120L140 180V160V140V120V100V80V60V40V20L120 0V20V40V60V80V100V120V140V160V180H100H80V160V140V120V100V80V60V40L60 60V80V100V120V140V160V180H40H20V160V140V120V100V80V60V40V20Z" fill="black"/>
<path d="M20 0H20.25V-0.603553L19.8232 -0.176777L20 0ZM0 20L-0.176777 19.8232L-0.25 19.8964V20H0ZM0 60H-0.25V60.1036L-0.176777 60.1768L0 60ZM0 80V79.75H-0.25V80H0ZM0 180H-0.25V180.104L-0.176777 180.177L0 180ZM20 200L19.8232 200.177L19.8964 200.25H20V200ZM60 200V200.25H60.1036L60.1768 200.177L60 200ZM80 200H79.75V200.25H80V200ZM120 200V200.25H120.104L120.177 200.177L120 200ZM140 180L140.177 180.177L140.25 180.104V180H140ZM140 20H140.25V19.8964L140.177 19.8232L140 20ZM120 0L120.177 -0.176777L119.75 -0.603553V0H120ZM120 180V180.25H120.25V180H120ZM80 40H80.25V39.3964L79.8232 39.8232L80 40ZM60 60L59.8232 59.8232L59.75 59.8964V60H60ZM60 180V180.25H60.25V180H60ZM20 180H19.75V180.25H20V180ZM19.75 0V20H20.25V0H19.75ZM0.176777 20.1768L20.1768 0.176777L19.8232 -0.176777L-0.176777 19.8232L0.176777 20.1768ZM0.25 40V20H-0.25V40H0.25ZM0.25 60V40H-0.25V60H0.25ZM20.1768 79.8232L0.176777 59.8232L-0.176777 60.1768L19.8232 80.1768L20.1768 79.8232ZM0 80.25H20V79.75H0V80.25ZM0.25 100V80H-0.25V100H0.25ZM0.25 120V100H-0.25V120H0.25ZM0.25 140V120H-0.25V140H0.25ZM0.25 160V140H-0.25V160H0.25ZM0.25 180V160H-0.25V180H0.25ZM20.1768 199.823L0.176777 179.823L-0.176777 180.177L19.8232 200.177L20.1768 199.823ZM40 199.75H20V200.25H40V199.75ZM60 199.75H40V200.25H60V199.75ZM60.1768 200.177L80.1768 180.177L79.8232 179.823L59.8232 199.823L60.1768 200.177ZM79.75 180V200H80.25V180H79.75ZM80 200.25H100V199.75H80V200.25ZM100 200.25H120V199.75H100V200.25ZM120.177 200.177L140.177 180.177L139.823 179.823L119.823 199.823L120.177 200.177ZM140.25 180V160H139.75V180H140.25ZM140.25 160V140H139.75V160H140.25ZM140.25 140V120H139.75V140H140.25ZM140.25 120V100H139.75V120H140.25ZM140.25 100V80H139.75V100H140.25ZM140.25 80V60H139.75V80H140.25ZM140.25 60V40H139.75V60H140.25ZM140.25 40V20H139.75V40H140.25ZM140.177 19.8232L120.177 -0.176777L119.823 0.176777L139.823 20.1768L140.177 19.8232ZM119.75 0V20H120.25V0H119.75ZM119.75 20V40H120.25V20H119.75ZM119.75 40V60H120.25V40H119.75ZM119.75 60V80H120.25V60H119.75ZM119.75 80V100H120.25V80H119.75ZM119.75 100V120H120.25V100H119.75ZM119.75 120V140H120.25V120H119.75ZM119.75 140V160H120.25V140H119.75ZM119.75 160V180H120.25V160H119.75ZM120 179.75H100V180.25H120V179.75ZM100 179.75H80V180.25H100V179.75ZM80.25 180V160H79.75V180H80.25ZM80.25 160V140H79.75V160H80.25ZM80.25 140V120H79.75V140H80.25ZM80.25 120V100H79.75V120H80.25ZM80.25 100V80H79.75V100H80.25ZM80.25 80V60H79.75V80H80.25ZM80.25 60V40H79.75V60H80.25ZM79.8232 39.8232L59.8232 59.8232L60.1768 60.1768L80.1768 40.1768L79.8232 39.8232ZM59.75 60V80H60.25V60H59.75ZM59.75 80V100H60.25V80H59.75ZM59.75 100V120H60.25V100H59.75ZM59.75 120V140H60.25V120H59.75ZM59.75 140V160H60.25V140H59.75ZM59.75 160V180H60.25V160H59.75ZM40 180.25H60V179.75H40V180.25ZM20 180.25H40V179.75H20V180.25ZM19.75 160V180H20.25V160H19.75ZM19.75 140V160H20.25V140H19.75ZM19.75 120V140H20.25V120H19.75ZM19.75 100V120H20.25V100H19.75ZM19.75 80V100H20.25V80H19.75ZM19.75 60V80H20.25V60H19.75ZM19.75 40V60H20.25V40H19.75ZM19.75 20V40H20.25V20H19.75Z" fill="#A9A9A9" mask="url(#path-1-inside-1)"/>
</svg>
