<svg width="100" height="200" viewBox="0 0 100 200" fill="none" xmlns="http://www.w3.org/2000/svg">
<mask id="path-1-inside-1" fill="white">
<path fill-rule="evenodd" clip-rule="evenodd" d="M20 20V0L0 20V40L20 60L40 80V100V120V140V160V180V200L60 180V160V140V120V100V80L80 60L100 40V20L80 0V20V40L60 60V79.5L40 59.5V60L20 40V20ZM60 79.5V80H40V79.5H60Z"/>
</mask>
<path fill-rule="evenodd" clip-rule="evenodd" d="M20 20V0L0 20V40L20 60L40 80V100V120V140V160V180V200L60 180V160V140V120V100V80L80 60L100 40V20L80 0V20V40L60 60V79.5L40 59.5V60L20 40V20ZM60 79.5V80H40V79.5H60Z" fill="black"/>
<path d="M20 0H20.25V-0.603553L19.8232 -0.176777L20 0ZM0 20L-0.176777 19.8232L-0.25 19.8964V20H0ZM0 40H-0.25V40.1036L-0.176777 40.1768L0 40ZM40 200H39.75V200.604L40.1768 200.177L40 200ZM60 180L60.1768 180.177L60.25 180.104V180H60ZM100 40L100.177 40.1768L100.25 40.1036V40H100ZM100 20H100.25V19.8964L100.177 19.8232L100 20ZM80 0L80.1768 -0.176777L79.75 -0.603553V0H80ZM80 40L80.1768 40.1768L80.25 40.1036V40H80ZM60 60L59.8232 59.8232L59.75 59.8964V60H60ZM40 59.5L40.1768 59.3232L39.75 58.8964V59.5H40ZM40 60L39.8232 60.1768L40.25 60.6036V60H40ZM20 40H19.75V40.1036L19.8232 40.1768L20 40ZM40 79.5V79.25H39.75V79.5H40ZM19.75 0V20H20.25V0H19.75ZM0.176777 20.1768L20.1768 0.176777L19.8232 -0.176777L-0.176777 19.8232L0.176777 20.1768ZM0.25 40V20H-0.25V40H0.25ZM20.1768 59.8232L0.176777 39.8232L-0.176777 40.1768L19.8232 60.1768L20.1768 59.8232ZM40.1768 79.8232L20.1768 59.8232L19.8232 60.1768L39.8232 80.1768L40.1768 79.8232ZM40.25 100V80H39.75V100H40.25ZM40.25 120V100H39.75V120H40.25ZM40.25 140V120H39.75V140H40.25ZM39.75 140V160H40.25V140H39.75ZM39.75 160V180H40.25V160H39.75ZM39.75 180V200H40.25V180H39.75ZM40.1768 200.177L60.1768 180.177L59.8232 179.823L39.8232 199.823L40.1768 200.177ZM60.25 180V160H59.75V180H60.25ZM60.25 160V140H59.75V160H60.25ZM59.75 120V140H60.25V120H59.75ZM59.75 100V120H60.25V100H59.75ZM59.75 80V100H60.25V80H59.75ZM60.1768 80.1768L80.1768 60.1768L79.8232 59.8232L59.8232 79.8232L60.1768 80.1768ZM80.1768 60.1768L100.177 40.1768L99.8232 39.8232L79.8232 59.8232L80.1768 60.1768ZM100.25 40V20H99.75V40H100.25ZM100.177 19.8232L80.1768 -0.176777L79.8232 0.176777L99.8232 20.1768L100.177 19.8232ZM79.75 0V20H80.25V0H79.75ZM79.75 20V40H80.25V20H79.75ZM79.8232 39.8232L59.8232 59.8232L60.1768 60.1768L80.1768 40.1768L79.8232 39.8232ZM59.75 60V79.5H60.25V60H59.75ZM39.8232 59.6768L59.8232 79.6768L60.1768 79.3232L40.1768 59.3232L39.8232 59.6768ZM40.25 60V59.5H39.75V60H40.25ZM19.8232 40.1768L39.8232 60.1768L40.1768 59.8232L20.1768 39.8232L19.8232 40.1768ZM19.75 20V40H20.25V20H19.75ZM59.75 79.5V80H60.25V79.5H59.75ZM40 80.25H60V79.75H40V80.25ZM39.75 79.5V80H40.25V79.5H39.75ZM60 79.25H40V79.75H60V79.25Z" fill="#A9A9A9" mask="url(#path-1-inside-1)"/>
</svg>
