<svg width="80" height="200" viewBox="0 0 80 200" fill="none" xmlns="http://www.w3.org/2000/svg">
<mask id="path-1-inside-1" fill="white">
<path fill-rule="evenodd" clip-rule="evenodd" d="M60 0H40H20L0 20V40L20 20H40H60V40V60L40 80H20V100L0 120V140V160V180V200H20H40H60L80 180V160L60 180H40H20V160V140V120L40 100L60 80L80 60V40V20V0H60Z"/>
</mask>
<path fill-rule="evenodd" clip-rule="evenodd" d="M60 0H40H20L0 20V40L20 20H40H60V40V60L40 80H20V100L0 120V140V160V180V200H20H40H60L80 180V160L60 180H40H20V160V140V120L40 100L60 80L80 60V40V20V0H60Z" fill="black"/>
<path d="M20 0V-0.25H19.8964L19.8232 -0.176777L20 0ZM0 20L-0.176777 19.8232L-0.25 19.8964V20H0ZM0 40H-0.25V40.6036L0.176777 40.1768L0 40ZM20 20V19.75H19.8964L19.8232 19.8232L20 20ZM60 20H60.25V19.75H60V20ZM60 60L60.1768 60.1768L60.25 60.1036V60H60ZM40 80V80.25H40.1036L40.1768 80.1768L40 80ZM20 80V79.75H19.75V80H20ZM20 100L20.1768 100.177L20.25 100.104V100H20ZM0 120L-0.176777 119.823L-0.25 119.896V120H0ZM0 200H-0.25V200.25H0V200ZM60 200V200.25H60.1036L60.1768 200.177L60 200ZM80 180L80.1768 180.177L80.25 180.104V180H80ZM80 160H80.25V159.396L79.8232 159.823L80 160ZM60 180V180.25H60.1036L60.1768 180.177L60 180ZM20 180H19.75V180.25H20V180ZM20 120L19.8232 119.823L19.75 119.896V120H20ZM80 60L80.1768 60.1768L80.25 60.1036V60H80ZM80 0H80.25V-0.25H80V0ZM40 0.25H60V-0.25H40V0.25ZM20 0.25H40V-0.25H20V0.25ZM0.176777 20.1768L20.1768 0.176777L19.8232 -0.176777L-0.176777 19.8232L0.176777 20.1768ZM0.25 40V20H-0.25V40H0.25ZM19.8232 19.8232L-0.176777 39.8232L0.176777 40.1768L20.1768 20.1768L19.8232 19.8232ZM40 19.75H20V20.25H40V19.75ZM60 19.75H40V20.25H60V19.75ZM60.25 40V20H59.75V40H60.25ZM60.25 60V40H59.75V60H60.25ZM40.1768 80.1768L60.1768 60.1768L59.8232 59.8232L39.8232 79.8232L40.1768 80.1768ZM20 80.25H40V79.75H20V80.25ZM20.25 100V80H19.75V100H20.25ZM0.176777 120.177L20.1768 100.177L19.8232 99.8232L-0.176777 119.823L0.176777 120.177ZM0.25 140V120H-0.25V140H0.25ZM0.25 160V140H-0.25V160H0.25ZM0.25 180V160H-0.25V180H0.25ZM0.25 200V180H-0.25V200H0.25ZM20 199.75H0V200.25H20V199.75ZM40 199.75H20V200.25H40V199.75ZM60 199.75H40V200.25H60V199.75ZM79.8232 179.823L59.8232 199.823L60.1768 200.177L80.1768 180.177L79.8232 179.823ZM79.75 160V180H80.25V160H79.75ZM60.1768 180.177L80.1768 160.177L79.8232 159.823L59.8232 179.823L60.1768 180.177ZM40 180.25H60V179.75H40V180.25ZM20 180.25H40V179.75H20V180.25ZM19.75 160V180H20.25V160H19.75ZM19.75 140V160H20.25V140H19.75ZM19.75 120V140H20.25V120H19.75ZM39.8232 99.8232L19.8232 119.823L20.1768 120.177L40.1768 100.177L39.8232 99.8232ZM59.8232 79.8232L39.8232 99.8232L40.1768 100.177L60.1768 80.1768L59.8232 79.8232ZM79.8232 59.8232L59.8232 79.8232L60.1768 80.1768L80.1768 60.1768L79.8232 59.8232ZM79.75 40V60H80.25V40H79.75ZM79.75 20V40H80.25V20H79.75ZM79.75 0V20H80.25V0H79.75ZM60 0.25H80V-0.25H60V0.25Z" fill="#A9A9A9" mask="url(#path-1-inside-1)"/>
</svg>
